<svg id="visual" viewBox="0 0 960 540" width="960" height="540" xmlns="http://www.w3.org/2000/svg" xmlns:xlink="http://www.w3.org/1999/xlink" version="1.1"><rect x="0" y="0" width="960" height="540" fill="#140021"></rect><path d="M430 0L507 0L507 77L446 77L446 154L377 154L377 231L516 231L516 309L400 309L400 386L363 386L363 463L531 463L531 540L0 540L0 463L0 463L0 386L0 386L0 309L0 309L0 231L0 231L0 154L0 154L0 77L0 77L0 0L0 0Z" fill="#9900ff"></path><path d="M251 0L371 0L371 77L239 77L239 154L407 154L407 231L348 231L348 309L317 309L317 386L406 386L406 463L325 463L325 540L0 540L0 463L0 463L0 386L0 386L0 309L0 309L0 231L0 231L0 154L0 154L0 77L0 77L0 0L0 0Z" fill="#7700c6"></path><path d="M109 0L205 0L205 77L108 77L108 154L241 154L241 231L228 231L228 309L126 309L126 386L164 386L164 463L218 463L218 540L0 540L0 463L0 463L0 386L0 386L0 309L0 309L0 231L0 231L0 154L0 154L0 77L0 77L0 0L0 0Z" fill="#560090"></path></svg>